<svg xmlns="http://www.w3.org/2000/svg" xmlns:xlink="http://www.w3.org/1999/xlink" width="100.0" height="100.0" viewBox="-79.41936546808401 43.673086027932385 0.022258489324926245 0.018520488738225538" preserveAspectRatio="xMinYMin meet"><g transform="matrix(1,0,0,-1,0,87.364692544603)"><path fill-rule="evenodd" fill="#66cc99" stroke="#555555" stroke-width="0.0004451697864985249" opacity="0.6" d="M -79.41469317817781,43.6739104164259 L -79.41484930122832,43.6743388247927 L -79.4155279126094,43.67606998537741 L -79.4157867581137,43.6767302521386 L -79.4164385645546,43.6783329020511 L -79.4165782543862,43.6787785512344 L -79.4167583944682,43.6792484522149 L -79.41698203537291,43.6798247440047 L -79.4170902471251,43.6801047004014 L -79.4174797570886,43.681051830379 L -79.4176666295158,43.6815699096212 L -79.4176976020857,43.68163169892501 L -79.4178116560388,43.6819252777403 L -79.4181213711598,43.6827105222857 L -79.4182734938897,43.6830961662335 L -79.418301440907,43.683167503583 L -79.4184313411692,43.6834966841996 L -79.4184870757371,43.6836294842548 L -79.4185410795905,43.6837582054538 L -79.4184092922561,43.683786393574 L -79.4182955283344,43.6834937157887 L -79.4154265333151,43.684065660547 L -79.4135200432832,43.6844456915062 L -79.4134087861596,43.6844695957643 L -79.4134686959176,43.6846245536214 L -79.4124643275333,43.6848288476745 L -79.4118960009694,43.6849418545125 L -79.4126020656339,43.6866857692443 L -79.4128218223812,43.687229039671 L -79.4122731860895,43.687340632143 L -79.4123095851789,43.6874306640936 L -79.4124449310775,43.6877690817767 L -79.4125749764611,43.6881026705283 L -79.4126022442033,43.68820308289101 L -79.4126262355444,43.6883388768546 L -79.412631283351,43.6884334123732 L -79.4126432068819,43.6885168725437 L -79.4126690850027,43.6886690142942 L -79.4121798023448,43.6887725684515 L -79.4121317450359,43.688782747996 L -79.4094911620232,43.6893416576956 L -79.4095159141932,43.6894373160946 L -79.4079543147094,43.6897847976179 L -79.4064026019847,43.6900806794424 L -79.4048987011668,43.6903958607535 L -79.4030176369546,43.6907821281771 L -79.4030622386805,43.6907397518989 L -79.403084589916,43.6906872662864 L -79.4030847025454,43.6906327275232 L -79.40233853963132,43.6887211977866 L -79.4014954899744,43.6866406966408 L -79.401126389152,43.6857160700657 L -79.400841057476,43.6850272500519 L -79.4005303647662,43.6843098010236 L -79.4002092949982,43.6835267044631 L -79.4001688947727,43.6834159800984 L -79.3998035302044,43.6825434875815 L -79.3992154226597,43.6811276314469 L -79.3990654446524,43.6807665464922 L -79.3989394746847,43.6804604265612 L -79.3987331620365,43.679962228305 L -79.3985629657772,43.6795542728627 L -79.3983515160598,43.6790391648102 L -79.3981409020124,43.6785307360415 L -79.3980121612171,43.6782038734666 L -79.3979440512351,43.6780262977103 L -79.3979313672526,43.6779949618024 L -79.397997906573,43.6779648847871 L -79.39810766305662,43.6779154844303 L -79.3982178162304,43.677866084320804 L -79.3983283660932,43.677816684457504 L -79.3984396598895,43.6777672941492 L -79.3985509707706,43.677722377402 L -79.39866305797811,43.6776729695768 L -79.3987751498381,43.6776280623042 L -79.39888799806091,43.677583155590305 L -79.3990012429834,43.6775382491152 L -79.399114879728,43.6774888512157 L -79.3992025285702,43.6774574239244 L -79.3992901799736,43.6774169952501 L -79.3993786050701,43.6773810678483 L -79.3994674269127,43.677345149728104 L -79.3995566132194,43.6773137235166 L -79.3996462037999,43.6772777969312 L -79.3997357818565,43.6772418792657 L -79.3998261336784,43.6772104448643 L -79.3999168946437,43.6771790287522 L -79.4000076183382,43.6771475945326 L -79.4000991356532,43.6771161699357 L -79.4001906603179,43.6770802536138 L -79.4002825618979,43.6770488292052 L -79.4003752372778,43.6770218970549 L -79.40046791256,43.6769949738305 L -79.4005609796537,43.6769635502124 L -79.4006540144064,43.6769366361508 L -79.40074786265342,43.6769052040578 L -79.4008416959652,43.6768827821947 L -79.4009359160751,43.6768513592708 L -79.4010305181557,43.6768289379187 L -79.4011394914127,43.6767930269395 L -79.40124844475712,43.6767616164984 L -79.4013577948506,43.6767302062957 L -79.4014675168886,43.6766987963088 L -79.401577635645,43.6766674045606 L -79.4016877469976,43.6766404773541 L -79.4017982426678,43.6766135773755 L -79.401909142447,43.6765821679758 L -79.4020200223858,43.6765552591109 L -79.4021313064015,43.6765238498247 L -79.4022429725496,43.6765014420761 L -79.4023546335109,43.6764745335542 L -79.4024666788314,43.6764476252511 L -79.4025787240519,43.6764207168379 L -79.4026915556349,43.6763983006426 L -79.40280397272,43.67637139232491 L -79.402883149386,43.6763541860873 L -79.4029167917251,43.6763489758964 L -79.4030299826882,43.6763265686732 L -79.4031435776805,43.6762996520191 L -79.4049670168388,43.6759208047062 L -79.4073338149418,43.675429007407 L -79.407847991862,43.67532218132661 L -79.4113608949251,43.6745959152122 L -79.4121860970333,43.6744315128604 L -79.4137161812489,43.6741115018232 L -79.4146748682077,43.6739143093347 L -79.41469317817781,43.6739104164259 z" /></g></svg>